<svg xmlns="http://www.w3.org/2000/svg">
	<symbol id="clock" viewBox="0 0 16 16">
		<title>Clock</title>
		<path d="M7.5,2C4.462,2,2,4.462,2,7.5C2,10.537,4.462,13,7.5,13c3.037,0,5.5-2.463,5.5-5.5C13,4.462,10.537,2,7.5,2z M7.5,12
		C5.015,12,3,9.985,3,7.5S5.015,3,7.5,3C9.984,3,12,5.015,12,7.5S9.984,12,7.5,12z M8,4H7v3.707l2.621,2.621l0.707-0.707L8,7.293V4z
		"/>
	</symbol>
	<symbol id="fork" viewBox="0 0 16 16">
		<title>Fork</title>
		<path d="M14,11.277V10c0-1.657-1.344-3-3-3H9V4.723C9.596,4.376,10,3.738,10,3c0-1.104-0.896-2-2-2
	S6,1.896,6,3c0,0.738,0.405,1.376,1,1.723V7H5c-1.657,0-3,1.343-3,3v1.277C1.405,11.624,1,12.262,1,13c0,1.104,0.896,2,2,2
	s2-0.896,2-2c0-0.738-0.405-1.376-1-1.723V10c0-0.553,0.448-1,1-1h2v2.277C6.405,11.624,6,12.262,6,13c0,1.104,0.896,2,2,2
	s2-0.896,2-2c0-0.738-0.404-1.376-1-1.723V9h2c0.553,0,1,0.447,1,1v1.277c-0.596,0.347-1,0.984-1,1.723c0,1.104,0.896,2,2,2
	s2-0.896,2-2C15,12.262,14.596,11.624,14,11.277z M8,2c0.552,0,1,0.448,1,1S8.552,4,8,4S7,3.552,7,3S7.448,2,8,2z M3,14
	c-0.552,0-1-0.447-1-1s0.448-1,1-1s1,0.447,1,1S3.552,14,3,14z M8,14c-0.552,0-1-0.447-1-1s0.448-1,1-1s1,0.447,1,1S8.552,14,8,14z
	 M13,14c-0.553,0-1-0.447-1-1s0.447-1,1-1s1,0.447,1,1S13.553,14,13,14z"/>
	</symbol>
	<symbol id="star" viewBox="0 0 16 16">
		<title>Star</title>
		<polygon points="15,6 9.646,6 8,1 6.354,6 1,6 5.338,9.031 3.674,14 8,10.918 12.326,14 10.663,9.031 "/>
	</symbol>
	<symbol id="eye" viewBox="0 0 16 16">
		<title>Eye</title>
		<path d="M12.042,4.042C11.015,2.993,9.584,2.34,8,2.34c-1.585,0-3.016,0.653-4.043,1.703L0,8h0l3.957,3.956
		C4.984,13.007,6.416,13.659,8,13.659c1.583,0,3.015-0.652,4.042-1.701L16,8L12.042,4.042z M10.972,10.908
		c-0.79,0.807-1.846,1.251-2.971,1.251c-1.126,0-2.182-0.444-2.983-1.264L2.122,8l2.907-2.907C5.819,4.285,6.874,3.84,8,3.84
		c1.125,0,2.18,0.444,2.981,1.262L13.879,8L10.972,10.908z M11,8 M5,8c0,1.656,1.344,3,3,3s3-1.344,3-3c0-1.657-1.344-3-3-3
		S5,6.343,5,8 M6,7c0-0.552,0.447-1,1-1c0.552,0,1,0.448,1,1S7.552,8,7,8C6.447,8,6,7.552,6,7z"/>
	</symbol>
	<symbol id="location" viewBox="0 0 16 16">
		<title>Location</title>
		<path d="M7.5,2C5.015,2,3,4.015,3,6.5c0,1.244,0.505,2.37,1.321,3.185l3.179,3.18l3.179-3.18
	C11.495,8.87,12,7.744,12,6.5C12,4.015,9.985,2,7.5,2z M7.5,9C6.119,9,5,7.88,5,6.5S6.119,4,7.5,4C8.88,4,10,5.12,10,6.5
	S8.88,9,7.5,9z"/>
	</symbol>
	<symbol id="octocat" viewBox="0 0 16 16">
		<title>Octocat</title>
		<path style="fill-rule:evenodd;clip-rule:evenodd;" d="M8,0C3.582,0,0,3.582,0,8c0,3.535,2.292,6.533,5.471,7.591
	c0.4,0.072,0.546-0.174,0.546-0.387c0-0.189-0.007-0.693-0.011-1.359c-2.226,0.482-2.695-1.072-2.695-1.072
	c-0.364-0.926-0.888-1.172-0.888-1.172c-0.727-0.496,0.055-0.486,0.055-0.486c0.803,0.057,1.226,0.824,1.226,0.824
	c0.713,1.223,1.873,0.871,2.328,0.666c0.073-0.518,0.279-0.869,0.508-1.07c-1.776-0.201-3.644-0.889-3.644-3.954
	c0-0.873,0.312-1.587,0.824-2.146C3.637,5.232,3.362,4.419,3.797,3.318c0,0,0.672-0.215,2.2,0.82C6.636,3.96,7.32,3.872,8,3.869
	C8.68,3.872,9.364,3.96,10.003,4.138c1.527-1.035,2.198-0.82,2.198-0.82c0.437,1.101,0.162,1.915,0.08,2.117
	c0.512,0.559,0.821,1.273,0.821,2.146c0,3.073-1.87,3.75-3.652,3.948c0.287,0.246,0.543,0.734,0.543,1.482
	c0,1.068-0.01,1.932-0.01,2.193c0,0.215,0.144,0.463,0.55,0.385C13.71,14.529,16,11.533,16,8C16,3.582,12.418,0,8,0z"/>
	</symbol>
	<symbol id="twitter" viewBox="0 0 16 16">
		<title>Twitter</title>
		<path d="M15,3.627c-0.515,0.229-1.068,0.383-1.649,0.452c0.592-0.355,1.048-0.918,1.262-1.589
	c-0.554,0.329-1.169,0.568-1.822,0.697c-0.524-0.558-1.271-0.907-2.098-0.907c-1.586,0-2.872,1.286-2.872,2.872
	c0,0.225,0.026,0.444,0.075,0.654c-2.387-0.12-4.504-1.263-5.921-3.001C1.728,3.229,1.586,3.724,1.586,4.25
	c0,0.996,0.506,1.875,1.277,2.39C2.393,6.625,1.95,6.496,1.562,6.281c0,0.013,0,0.024,0,0.037c0,1.392,0.989,2.552,2.304,2.816
	C3.625,9.199,3.372,9.234,3.11,9.234c-0.186,0-0.365-0.02-0.541-0.051c0.366,1.142,1.427,1.971,2.683,1.993
	c-0.982,0.771-2.222,1.23-3.566,1.23c-0.232,0-0.461-0.014-0.686-0.041c1.271,0.816,2.78,1.291,4.402,1.291
	c5.284,0,8.174-4.377,8.174-8.172c0-0.124-0.004-0.248-0.01-0.371C14.127,4.708,14.615,4.203,15,3.627z"/>
	</symbol>
	<symbol id="pinterest" viewBox="0 0 16 16">
		<title>Pinterest</title>
		<path d="M8,0C3.582,0,0,3.582,0,8c0,3.275,1.97,6.091,4.789,7.328c-0.022-0.56-0.004-1.229,0.14-1.837
		c0.153-0.649,1.029-4.359,1.029-4.359S5.702,8.621,5.702,7.866c0-1.186,0.688-2.071,1.543-2.071c0.728,0,1.079,0.546,1.079,1.201
		c0,0.731-0.467,1.826-0.707,2.839c-0.2,0.848,0.426,1.54,1.263,1.54c1.517,0,2.536-1.946,2.536-4.253
		c0-1.753-1.181-3.066-3.329-3.066c-2.426,0-3.938,1.81-3.938,3.832c0,0.697,0.206,1.188,0.527,1.568
		c0.148,0.176,0.169,0.246,0.116,0.447c-0.039,0.146-0.127,0.501-0.164,0.642c-0.053,0.203-0.217,0.274-0.4,0.199
		C3.11,10.289,2.59,9.064,2.59,7.688c0-2.273,1.917-4.998,5.718-4.998c3.054,0,5.064,2.21,5.064,4.583
		c0,3.138-1.745,5.483-4.316,5.483c-0.864,0-1.676-0.467-1.955-0.998c0,0-0.464,1.844-0.563,2.2
		c-0.17,0.617-0.502,1.233-0.805,1.713C6.453,15.885,7.212,16,8,16c4.419,0,8-3.581,8-8C16,3.582,12.419,0,8,0z"/>
	</symbol>
	<symbol id="collapse" viewBox="0 0 16 16">
		<title>Collapse</title>
		<polygon points="11,11 7.5,7.5 4,11 3,10 7.5,5.5 12,10 "/>
	</symbol>
</svg>
