<svg id="sprite" xmlns="http://www.w3.org/2000/svg">
	<symbol id="clock" viewBox="0 0 16 16">
		<title>Clock</title>
		<path d="M7.5,2C4.462,2,2,4.462,2,7.5C2,10.537,4.462,13,7.5,13c3.037,0,5.5-2.463,5.5-5.5C13,4.462,10.537,2,7.5,2z M7.5,12
		C5.015,12,3,9.985,3,7.5S5.015,3,7.5,3C9.984,3,12,5.015,12,7.5S9.984,12,7.5,12z M8,4H7v3.707l2.621,2.621l0.707-0.707L8,7.293V4z
		"/>
	</symbol>
	<symbol id="fork" viewBox="0 0 16 16">
		<title>Fork</title>
		<path d="M14,11.277V10c0-1.657-1.344-3-3-3H9V4.723C9.596,4.376,10,3.738,10,3c0-1.104-0.896-2-2-2
	S6,1.896,6,3c0,0.738,0.405,1.376,1,1.723V7H5c-1.657,0-3,1.343-3,3v1.277C1.405,11.624,1,12.262,1,13c0,1.104,0.896,2,2,2
	s2-0.896,2-2c0-0.738-0.405-1.376-1-1.723V10c0-0.553,0.448-1,1-1h2v2.277C6.405,11.624,6,12.262,6,13c0,1.104,0.896,2,2,2
	s2-0.896,2-2c0-0.738-0.404-1.376-1-1.723V9h2c0.553,0,1,0.447,1,1v1.277c-0.596,0.347-1,0.984-1,1.723c0,1.104,0.896,2,2,2
	s2-0.896,2-2C15,12.262,14.596,11.624,14,11.277z M8,2c0.552,0,1,0.448,1,1S8.552,4,8,4S7,3.552,7,3S7.448,2,8,2z M3,14
	c-0.552,0-1-0.447-1-1s0.448-1,1-1s1,0.447,1,1S3.552,14,3,14z M8,14c-0.552,0-1-0.447-1-1s0.448-1,1-1s1,0.447,1,1S8.552,14,8,14z
	 M13,14c-0.553,0-1-0.447-1-1s0.447-1,1-1s1,0.447,1,1S13.553,14,13,14z"/>
	</symbol>
	<symbol id="star" viewBox="0 0 16 16">
		<title>Star</title>
		<polygon points="15,6 9.646,6 8,1 6.354,6 1,6 5.338,9.031 3.674,14 8,10.918 12.326,14 10.663,9.031 "/>
	</symbol>
	<symbol id="eye" viewBox="0 0 16 16">
		<title>Eye</title>
		<path d="M12.042,4.042C11.015,2.993,9.584,2.34,8,2.34c-1.585,0-3.016,0.653-4.043,1.703L0,8h0l3.957,3.956
		C4.984,13.007,6.416,13.659,8,13.659c1.583,0,3.015-0.652,4.042-1.701L16,8L12.042,4.042z M10.972,10.908
		c-0.79,0.807-1.846,1.251-2.971,1.251c-1.126,0-2.182-0.444-2.983-1.264L2.122,8l2.907-2.907C5.819,4.285,6.874,3.84,8,3.84
		c1.125,0,2.18,0.444,2.981,1.262L13.879,8L10.972,10.908z M11,8 M5,8c0,1.656,1.344,3,3,3s3-1.344,3-3c0-1.657-1.344-3-3-3
		S5,6.343,5,8 M6,7c0-0.552,0.447-1,1-1c0.552,0,1,0.448,1,1S7.552,8,7,8C6.447,8,6,7.552,6,7z"/>
	</symbol>
	<symbol id="location" viewBox="0 0 16 16">
		<title>Location</title>
		<path d="M7.5,2C5.015,2,3,4.015,3,6.5c0,1.244,0.505,2.37,1.321,3.185l3.179,3.18l3.179-3.18
	C11.495,8.87,12,7.744,12,6.5C12,4.015,9.985,2,7.5,2z M7.5,9C6.119,9,5,7.88,5,6.5S6.119,4,7.5,4C8.88,4,10,5.12,10,6.5
	S8.88,9,7.5,9z"/>
	</symbol>
	<symbol id="octocat" viewBox="0 0 16 16">
		<title>Octocat</title>
		<path style="fill-rule:evenodd;clip-rule:evenodd;" d="M8,0C3.582,0,0,3.582,0,8c0,3.535,2.292,6.533,5.471,7.591
	c0.4,0.072,0.546-0.174,0.546-0.387c0-0.189-0.007-0.693-0.011-1.359c-2.226,0.482-2.695-1.072-2.695-1.072
	c-0.364-0.926-0.888-1.172-0.888-1.172c-0.727-0.496,0.055-0.486,0.055-0.486c0.803,0.057,1.226,0.824,1.226,0.824
	c0.713,1.223,1.873,0.871,2.328,0.666c0.073-0.518,0.279-0.869,0.508-1.07c-1.776-0.201-3.644-0.889-3.644-3.954
	c0-0.873,0.312-1.587,0.824-2.146C3.637,5.232,3.362,4.419,3.797,3.318c0,0,0.672-0.215,2.2,0.82C6.636,3.96,7.32,3.872,8,3.869
	C8.68,3.872,9.364,3.96,10.003,4.138c1.527-1.035,2.198-0.82,2.198-0.82c0.437,1.101,0.162,1.915,0.08,2.117
	c0.512,0.559,0.821,1.273,0.821,2.146c0,3.073-1.87,3.75-3.652,3.948c0.287,0.246,0.543,0.734,0.543,1.482
	c0,1.068-0.01,1.932-0.01,2.193c0,0.215,0.144,0.463,0.55,0.385C13.71,14.529,16,11.533,16,8C16,3.582,12.418,0,8,0z"/>
	</symbol>
	<symbol id="twitter" viewBox="0 0 16 16">
		<title>Twitter</title>
		<path d="M15,3.627c-0.515,0.229-1.068,0.383-1.649,0.452c0.592-0.355,1.048-0.918,1.262-1.589
	c-0.554,0.329-1.169,0.568-1.822,0.697c-0.524-0.558-1.271-0.907-2.098-0.907c-1.586,0-2.872,1.286-2.872,2.872
	c0,0.225,0.026,0.444,0.075,0.654c-2.387-0.12-4.504-1.263-5.921-3.001C1.728,3.229,1.586,3.724,1.586,4.25
	c0,0.996,0.506,1.875,1.277,2.39C2.393,6.625,1.95,6.496,1.562,6.281c0,0.013,0,0.024,0,0.037c0,1.392,0.989,2.552,2.304,2.816
	C3.625,9.199,3.372,9.234,3.11,9.234c-0.186,0-0.365-0.02-0.541-0.051c0.366,1.142,1.427,1.971,2.683,1.993
	c-0.982,0.771-2.222,1.23-3.566,1.23c-0.232,0-0.461-0.014-0.686-0.041c1.271,0.816,2.78,1.291,4.402,1.291
	c5.284,0,8.174-4.377,8.174-8.172c0-0.124-0.004-0.248-0.01-0.371C14.127,4.708,14.615,4.203,15,3.627z"/>
	</symbol>
	<symbol id="pinterest" viewBox="0 0 16 16">
		<title>Pinterest</title>
		<path d="M8,0C3.582,0,0,3.582,0,8c0,3.275,1.97,6.091,4.789,7.328c-0.022-0.56-0.004-1.229,0.14-1.837
		c0.153-0.649,1.029-4.359,1.029-4.359S5.702,8.621,5.702,7.866c0-1.186,0.688-2.071,1.543-2.071c0.728,0,1.079,0.546,1.079,1.201
		c0,0.731-0.467,1.826-0.707,2.839c-0.2,0.848,0.426,1.54,1.263,1.54c1.517,0,2.536-1.946,2.536-4.253
		c0-1.753-1.181-3.066-3.329-3.066c-2.426,0-3.938,1.81-3.938,3.832c0,0.697,0.206,1.188,0.527,1.568
		c0.148,0.176,0.169,0.246,0.116,0.447c-0.039,0.146-0.127,0.501-0.164,0.642c-0.053,0.203-0.217,0.274-0.4,0.199
		C3.11,10.289,2.59,9.064,2.59,7.688c0-2.273,1.917-4.998,5.718-4.998c3.054,0,5.064,2.21,5.064,4.583
		c0,3.138-1.745,5.483-4.316,5.483c-0.864,0-1.676-0.467-1.955-0.998c0,0-0.464,1.844-0.563,2.2
		c-0.17,0.617-0.502,1.233-0.805,1.713C6.453,15.885,7.212,16,8,16c4.419,0,8-3.581,8-8C16,3.582,12.419,0,8,0z"/>
	</symbol>
	<symbol id="collapse" viewBox="0 0 16 16">
		<title>Collapse</title>
		<polygon points="11,11 7.5,7.5 4,11 3,10 7.5,5.5 12,10 "/>
	</symbol>
	<symbol id="logo" viewBox="0 0 230.00001 93.086742">
		<title>Logo</title>
		<g transform="translate(0,-1052.3622)">
			<g style="fill:#f9f9f9;fill-opacity:1;stroke:none;stroke-width:1px;stroke-linecap:butt;stroke-linejoin:miter;stroke-opacity:1">
				<path d="m 46.964354,1053.5243 0,55.3369 -12.578125,0 0,-37.3584 -5.024415,37.3584 -8.920898,0 -5.297852,-36.5039 0,36.5039 -12.5781245,0 0,-55.3369 18.6279295,0 q 0.820313,4.9902 1.743164,11.7578 l 1.982422,14.082 3.28125,-25.8398 18.764649,0 z" />
				<path d="m 85.758299,1073.8954 -14.389649,0 0,-5.0244 q 0,-4.751 -0.410156,-5.9473 -0.410156,-1.1963 -1.948242,-1.1963 -1.333008,0 -1.811523,1.0254 -0.478516,1.0254 -0.478516,5.2637 l 0,26.5576 q 0,3.7256 0.478516,4.9219 0.478515,1.1621 1.914062,1.1621 1.572266,0 2.119141,-1.333 0.581054,-1.333 0.581054,-5.1953 l 0,-6.5625 -2.905273,0 0,-8.4082 16.850586,0 0,29.7021 -9.057617,0 -1.333008,-3.9648 q -1.469727,2.5634 -3.725586,3.8623 -2.22168,1.2646 -5.263672,1.2646 -3.623047,0 -6.801758,-1.7431 -3.144531,-1.7774 -4.785156,-4.375 -1.640625,-2.5977 -2.050781,-5.4346 -0.410157,-2.8711 -0.410157,-8.5791 l 0,-16.4405 q 0,-7.9296 0.854493,-11.5185 0.854492,-3.5889 4.887695,-6.5625 4.067383,-3.0078 10.493164,-3.0078 6.323242,0 10.493164,2.5976 4.169922,2.5977 5.43457,6.1866 1.264649,3.5546 1.264649,10.3564 l 0,2.3926 z" />
				<path d="m 105.68506,1053.5243 0,55.3369 -14.389652,0 0,-55.3369 14.389652,0 z" />
				<path
				 d="m 144.10303,1053.5243 0,36.9824 q 0,6.2891 -0.41016,8.8526 -0.41016,2.5292 -2.42676,5.2294 -2.0166,2.6661 -5.33203,4.0674 -3.28125,1.3672 -7.75879,1.3672 -4.95605,0 -8.75,-1.6406 -3.79394,-1.6406 -5.67383,-4.2725 -1.87988,-2.6318 -2.22168,-5.5371 -0.34179,-2.9394 -0.34179,-12.3047 l 0,-32.7441 14.38964,0 0,41.4941 q 0,3.6231 0.37598,4.6485 0.41016,0.9912 1.60645,0.9912 1.36718,0 1.74316,-1.0938 0.41016,-1.1279 0.41016,-5.2636 l 0,-40.7764 14.38965,0 z"
				 style="font-size:70px"
				 id="path5081"
				 />
				<path
				 d="m 164.06396,1053.5243 0,44.2627 8.75,0 0,11.0742 -23.13965,0 0,-55.3369 14.38965,0 z"
				 style="font-size:70px"
				 id="path5083"
				 />
				<path
				 d="m 190.72412,1053.5243 0,55.3369 -14.38965,0 0,-55.3369 14.38965,0 z"
				 style="font-size:70px"
				 id="path5085"
				 />
				<path
				 d="m 229.31299,1085.9266 q 0,8.3399 -0.41016,11.8262 -0.37598,3.4522 -2.46094,6.3232 -2.05078,2.8711 -5.57129,4.4092 -3.5205,1.5381 -8.20312,1.5381 -4.44336,0 -7.99805,-1.4355 -3.52051,-1.4698 -5.67383,-4.375 -2.15332,-2.9053 -2.56347,-6.3233 -0.41016,-3.4179 -0.41016,-11.9629 l 0,-9.4677 q 0,-8.3399 0.37598,-11.792 0.41015,-3.4864 2.46093,-6.3575 2.08497,-2.871 5.60547,-4.4091 3.52051,-1.5381 8.20313,-1.5381 4.44336,0 7.96387,1.4697 3.55468,1.4356 5.708,4.3408 2.15332,2.9053 2.56348,6.3233 0.41016,3.4179 0.41016,11.9629 l 0,9.4677 z m -14.38965,-18.1836 q 0,-3.8623 -0.44434,-4.9218 -0.41015,-1.0938 -1.74316,-1.0938 -1.12793,0 -1.74317,0.8887 -0.58105,0.8545 -0.58105,5.1269 l 0,25.8399 q 0,4.8193 0.37598,5.9473 0.41015,1.1279 1.8457,1.1279 1.46973,0 1.87988,-1.2988 0.41016,-1.2989 0.41016,-6.1866 l 0,-25.4297 z"
				 style="font-size:70px"
				 id="path5087"
				 />
			</g>
			<rect
				style="opacity:1;fill:#a02c2c;fill-opacity:1;stroke:none;stroke-width:1;stroke-miterlimit:4;stroke-dasharray:none;stroke-opacity:1"
				width="230.00002"
				height="6"
				x="0"
				y="1113.8612" 
			/>
			<g
				transform="scale(1.0332402,0.96782916)"
				style="font-style:normal;font-weight:normal;font-size:20.66480446px;line-height:125%;font-family:sans-serif;letter-spacing:0px;word-spacing:0px;fill:#b3b3b3;fill-opacity:1;stroke:none;stroke-width:1px;stroke-linecap:butt;stroke-linejoin:miter;stroke-opacity:1"
			>
			<path
         d="M 6.4577514,1179.0035 0,1174.4831 0,1171.9 l 6.4577514,-4.5204 0,2.5831 -4.520426,3.2188 4.520426,3.2389 0,2.5831 z"
         style="font-style:normal;font-variant:normal;font-weight:normal;font-stretch:normal;font-size:20.66480446px;font-family:Oswald;-inkscape-font-specification:Oswald"
         id="path5090"
          />
      <path
         d="m 9.6059051,1179.6493 0,-10.9782 -1.2915502,0 0,-1.9373 1.2915502,0 0,-0.4944 q 0,-0.8173 0.060542,-1.3824 0.060541,-0.5751 0.2421656,-1.0998 0.1917143,-0.5348 0.5045113,-0.8476 0.322888,-0.3229 0.84758,-0.5045 0.534782,-0.1917 1.27137,-0.1917 0.625594,0 1.594257,0.121 l 0,1.9172 q -0.100901,-0.01 -0.4137,-0.051 -0.312797,-0.05 -0.45406,-0.05 -0.645775,0 -0.85767,0.4137 -0.211895,0.4036 -0.211895,1.2007 l 0,0.9687 1.937325,0 0,1.9373 -1.937325,0 0,10.9782 -2.5831004,0 z"
         style="font-style:normal;font-variant:normal;font-weight:normal;font-stretch:normal;font-size:20.66480446px;font-family:Oswald;-inkscape-font-specification:Oswald"
         id="path5092"
          />
      <path
         d="m 15.34725,1179.6493 0,-12.9155 2.583101,0 0,1.7254 q 0.393519,-0.7668 1.140196,-1.3319 0.756768,-0.5751 1.67498,-0.5751 0.03027,0 0.413699,0.04 l 0,2.8556 q -0.716406,-0.2826 -1.432813,-0.2826 -0.807219,0 -1.301641,0.4844 -0.494421,0.4843 -0.494421,1.2814 l 0,8.718 -2.583101,0 z"
         style="font-style:normal;font-variant:normal;font-weight:normal;font-stretch:normal;font-size:20.66480446px;font-family:Oswald;-inkscape-font-specification:Oswald"
         id="path5094"
          />
      <path
         d="m 28.858077,1178.6201 q -0.898031,1.2108 -2.97662,1.2108 -2.078589,0 -2.97662,-1.2108 -0.898031,-1.2108 -0.898031,-3.4912 l 0,-3.8747 q 0,-2.2804 0.898031,-3.4912 0.898031,-1.2108 2.97662,-1.2108 2.078589,0 2.97662,1.2108 0.898031,1.2108 0.898031,3.4912 l 0,3.8747 q 0,2.2804 -0.898031,3.4912 z m -3.460951,-0.9889 q 0.211895,0.081 0.484331,0.081 0.272437,0 0.474241,-0.081 0.211895,-0.081 0.343068,-0.1917 0.141264,-0.1211 0.232076,-0.343 0.09081,-0.2321 0.141263,-0.4036 0.05045,-0.1716 0.07063,-0.4945 0.02018,-0.3229 0.02018,-0.5045 0.01009,-0.1917 0.01009,-0.565 l 0,-3.8747 q 0,-0.3733 -0.01009,-0.5549 0,-0.1918 -0.02018,-0.5146 -0.02018,-0.3229 -0.07063,-0.4945 -0.05045,-0.1715 -0.141263,-0.3935 -0.09081,-0.2321 -0.232076,-0.3431 -0.131173,-0.121 -0.343068,-0.2018 -0.201804,-0.081 -0.474241,-0.081 -0.272436,0 -0.484331,0.081 -0.201805,0.081 -0.343068,0.2018 -0.131173,0.111 -0.221985,0.3431 -0.09081,0.222 -0.141264,0.3935 -0.05045,0.1716 -0.07063,0.4945 -0.02018,0.3228 -0.03027,0.5146 0,0.1816 0,0.5549 l 0,3.8747 q 0,0.3733 0,0.565 0.01009,0.1816 0.03027,0.5045 0.02018,0.3229 0.07063,0.4945 0.05045,0.1715 0.141264,0.4036 0.09081,0.2219 0.221985,0.343 0.141263,0.111 0.343068,0.1917 z"
         style="font-style:normal;font-variant:normal;font-weight:normal;font-stretch:normal;font-size:20.66480446px;font-family:Oswald;-inkscape-font-specification:Oswald"
         id="path5096"
          />
      <path
         d="m 31.895237,1179.6493 0,-12.9155 2.583101,0 0,1.3924 q 0.575143,-0.5247 0.938392,-0.7971 0.363248,-0.2825 0.998933,-0.5247 0.645775,-0.2522 1.372272,-0.2522 0.8274,0 1.342002,0.6054 0.514602,0.6054 0.514602,1.4832 l 0,11.0085 -2.583101,0 0,-9.6866 q 0,-0.6761 -0.191714,-0.9788 -0.191715,-0.3128 -0.776948,-0.3128 -0.332978,0 -0.665956,0.1413 -0.322888,0.1312 -0.484331,0.2522 -0.161444,0.111 -0.464151,0.3633 l 0,10.2214 -2.583101,0 z"
         style="font-style:normal;font-variant:normal;font-weight:normal;font-stretch:normal;font-size:20.66480446px;font-family:Oswald;-inkscape-font-specification:Oswald"
         id="path5098"
          />
      <path
         d="m 45.486785,1179.8309 q -1.523626,0 -2.219852,-0.7769 -0.686136,-0.777 -0.706317,-2.3511 l 0,-8.0318 -1.29155,0 0,-1.9373 1.29155,0 0,-4.5204 2.583101,0 0,4.5204 1.937325,0 0,1.9373 -1.937325,0 0,7.5374 q 0,0.777 0.211895,1.1402 0.211895,0.3633 0.85767,0.3633 0.282527,0 0.86776,-0.1009 l 0,2.0987 q -0.968662,0.1211 -1.594257,0.1211 z"
         style="font-style:normal;font-variant:normal;font-weight:normal;font-stretch:normal;font-size:20.66480446px;font-family:Oswald;-inkscape-font-specification:Oswald"
         id="path5100"
          />
      <path
         d="m 52.539861,1179.8309 q -0.938392,0 -1.634618,-0.3229 -0.686136,-0.3229 -1.099836,-0.8375 -0.403609,-0.5247 -0.655865,-1.3319 -0.252256,-0.8173 -0.353158,-1.6245 -0.09081,-0.8173 -0.110993,-1.897 -0.03027,-0.8475 0,-1.6951 0.03027,-1.009 0.131173,-1.786 0.110993,-0.787 0.373339,-1.5236 0.262346,-0.7366 0.676046,-1.2109 0.42379,-0.4742 1.099835,-0.7567 0.686137,-0.2926 1.594258,-0.2926 0.827399,0 1.452994,0.222 0.635685,0.2118 1.049384,0.6558 0.42379,0.4339 0.696227,0.9687 0.282526,0.5348 0.42379,1.3016 0.141263,0.7568 0.191714,1.4934 0.06054,0.7366 0.06054,1.6951 l 0,0.3027 -5.166201,0 0,0.6458 q 0,0.1312 0,0.4137 -0.02018,0.3734 -0.01009,0.777 0.02018,0.3935 0.04036,0.7769 0.02018,0.3834 0.110993,0.7366 0.09081,0.3431 0.221985,0.6054 0.131173,0.2624 0.363249,0.4137 0.242165,0.1514 0.565053,0.1514 0.403609,0 0.665955,-0.1514 0.262347,-0.1614 0.383429,-0.4742 0.131173,-0.3128 0.181625,-0.6256 0.05045,-0.3128 0.06054,-0.7871 l 0,-0.5448 2.56292,0 0,0.5146 q -0.09081,2.0685 -1.019114,3.1279 -0.928301,1.0595 -2.855537,1.0595 z m -1.271369,-7.9309 2.56292,0 0,-0.777 q -0.01009,-0.5146 -0.06054,-0.898 -0.05045,-0.3834 -0.181624,-0.7668 -0.121083,-0.3835 -0.383429,-0.5853 -0.262346,-0.2018 -0.645775,-0.2018 -0.393519,0 -0.665956,0.2119 -0.262346,0.2119 -0.393519,0.6155 -0.121083,0.3935 -0.171534,0.777 -0.05045,0.3834 -0.06054,0.9182 l 0,0.7063 z"
         style="font-style:normal;font-variant:normal;font-weight:normal;font-stretch:normal;font-size:20.66480446px;font-family:Oswald;-inkscape-font-specification:Oswald"
         id="path5102"
          />
      <path
         d="m 58.291298,1179.6493 0,-12.9155 2.583101,0 0,1.3924 q 0.575143,-0.5247 0.938392,-0.7971 0.363248,-0.2825 0.998933,-0.5247 0.645775,-0.2522 1.372272,-0.2522 0.8274,0 1.342002,0.6054 0.514602,0.6054 0.514602,1.4832 l 0,11.0085 -2.583101,0 0,-9.6866 q 0,-0.6761 -0.191714,-0.9788 -0.191715,-0.3128 -0.776949,-0.3128 -0.332977,0 -0.665955,0.1413 -0.322888,0.1312 -0.484332,0.2522 -0.161443,0.111 -0.46415,0.3633 l 0,10.2214 -2.583101,0 z"
         style="font-style:normal;font-variant:normal;font-weight:normal;font-stretch:normal;font-size:20.66480446px;font-family:Oswald;-inkscape-font-specification:Oswald"
         id="path5104"
          />
      <path
         d="m 71.963568,1177.712 q 0.938392,0 1.937325,-0.4036 l 0,-8.1227 q -0.86776,-0.5146 -1.937325,-0.5146 -0.383429,0 -0.645775,0.1917 -0.262347,0.1817 -0.39352,0.5449 -0.131173,0.3532 -0.191714,0.7366 -0.06054,0.3733 -0.07063,0.8879 -0.04036,2.2602 0,3.5821 0.01009,0.6457 0.07063,1.1503 0.06054,0.5045 0.191714,0.9787 0.141264,0.4642 0.40361,0.7164 0.262346,0.2523 0.635685,0.2523 z m -0.645775,2.1189 q -0.85767,0 -1.503446,-0.4843 -0.635685,-0.4843 -0.988843,-1.3117 -0.343068,-0.8274 -0.514602,-1.7154 -0.171534,-0.898 -0.211895,-1.9272 -0.02018,-0.4743 0,-2.3208 0.02018,-0.6659 0.06054,-1.2007 0.04036,-0.5449 0.131173,-1.1301 0.100902,-0.5853 0.242165,-1.0292 0.151354,-0.4541 0.39352,-0.8678 0.242165,-0.4238 0.565053,-0.6962 0.322887,-0.2724 0.776948,-0.4339 0.454061,-0.1614 1.009024,-0.1614 0.43388,0 0.807219,0.121 0.383429,0.111 0.726497,0.3633 0.343068,0.2422 0.544872,0.4339 0.211895,0.1917 0.544873,0.5448 l 0,-6.4375 2.583101,0 0,18.0716 -2.583101,0 0,-1.1705 q -0.585234,0.6054 -1.190648,0.9788 -0.605414,0.3733 -1.392452,0.3733 z"
         style="font-style:normal;font-variant:normal;font-weight:normal;font-stretch:normal;font-size:20.66480446px;font-family:Oswald;-inkscape-font-specification:Oswald"
         id="path5106"
          />
      <path
         d="m 81.932724,1179.6493 5.801886,-18.0817 2.593191,0 -5.811977,18.0817 -2.5831,0 z"
         style="font-style:normal;font-variant:normal;font-weight:normal;font-stretch:normal;font-size:20.66480446px;font-family:Oswald;-inkscape-font-specification:Oswald"
         id="path5108"
          />
      <path
         d="m 91.619347,1179.0035 0,-2.5831 4.520426,-3.2389 -4.520426,-3.2188 0,-2.5831 6.457751,4.5204 0,2.5831 -6.457751,4.5204 z"
         style="font-style:normal;font-variant:normal;font-weight:normal;font-stretch:normal;font-size:20.66480446px;font-family:Oswald;-inkscape-font-specification:Oswald"
         id="path5110"
          />
      <path
         d="m 106.26028,1179.6493 -3.22888,-18.0817 2.5831,0 1.29155,8.3951 0.65587,5.1662 0.63568,-5.1662 1.29155,-8.3951 2.5831,0 1.29155,8.3951 0.63569,5.1662 0.65586,-5.1662 1.29156,-8.3951 2.5831,0 -3.22888,18.0817 -2.5831,0 -1.29155,-8.3951 -0.64578,-5.1662 -0.64577,5.1662 -1.29155,8.3951 -2.5831,0 z"
         style="font-style:normal;font-variant:normal;font-weight:normal;font-stretch:normal;font-size:20.66480446px;font-family:Oswald;-inkscape-font-specification:Oswald"
         id="path5112"
          />
      <path
         d="m 122.96971,1179.8309 q -0.93839,0 -1.63462,-0.3229 -0.68613,-0.3229 -1.09983,-0.8375 -0.40361,-0.5247 -0.65587,-1.3319 -0.25225,-0.8173 -0.35315,-1.6245 -0.0908,-0.8173 -0.111,-1.897 -0.0303,-0.8475 0,-1.6951 0.0303,-1.009 0.13118,-1.786 0.11099,-0.787 0.37333,-1.5236 0.26235,-0.7366 0.67605,-1.2109 0.42379,-0.4742 1.09984,-0.7567 0.68613,-0.2926 1.59425,-0.2926 0.8274,0 1.453,0.222 0.63568,0.2118 1.04938,0.6558 0.42379,0.4339 0.69623,0.9687 0.28252,0.5348 0.42379,1.3016 0.14126,0.7568 0.19171,1.4934 0.0605,0.7366 0.0605,1.6951 l 0,0.3027 -5.1662,0 0,0.6458 q 0,0.1312 0,0.4137 -0.0202,0.3734 -0.0101,0.777 0.0202,0.3935 0.0404,0.7769 0.0202,0.3834 0.111,0.7366 0.0908,0.3431 0.22198,0.6054 0.13117,0.2624 0.36325,0.4137 0.24217,0.1514 0.56505,0.1514 0.40361,0 0.66596,-0.1514 0.26235,-0.1614 0.38343,-0.4742 0.13117,-0.3128 0.18162,-0.6256 0.0504,-0.3128 0.0605,-0.7871 l 0,-0.5448 2.56292,0 0,0.5146 q -0.0908,2.0685 -1.01911,3.1279 -0.9283,1.0595 -2.85554,1.0595 z m -1.27137,-7.9309 2.56292,0 0,-0.777 q -0.0101,-0.5146 -0.0605,-0.898 -0.0504,-0.3834 -0.18162,-0.7668 -0.12109,-0.3835 -0.38343,-0.5853 -0.26235,-0.2018 -0.64578,-0.2018 -0.39352,0 -0.66595,0.2119 -0.26235,0.2119 -0.39352,0.6155 -0.12108,0.3935 -0.17154,0.777 -0.0504,0.3834 -0.0605,0.9182 l 0,0.7063 z"
         style="font-style:normal;font-variant:normal;font-weight:normal;font-stretch:normal;font-size:20.66480446px;font-family:Oswald;-inkscape-font-specification:Oswald"
         id="path5114"
          />
      <path
         d="m 133.24158,1177.712 q 0.4137,0 0.68614,-0.3027 0.28252,-0.3027 0.4036,-0.8577 0.13118,-0.5651 0.17154,-1.12 0.0505,-0.555 0.0505,-1.2916 0,-0.5448 -0.0101,-1.4429 0,-0.898 0,-1.3521 0,-0.454 -0.0202,-0.787 -0.0202,-0.3431 -0.1009,-0.7164 -0.0807,-0.3734 -0.22199,-0.6155 -0.13117,-0.2422 -0.37334,-0.3935 -0.24216,-0.1615 -0.58523,-0.1615 -1.06957,0 -1.93733,0.5146 l 0,8.1227 q 0.99894,0.4036 1.93733,0.4036 z m 0.64577,2.1189 q -0.78703,0 -1.39245,-0.3733 -0.60541,-0.3734 -1.19065,-0.9788 l 0,1.1705 -2.5831,0 0,-18.0716 2.5831,0 0,6.4375 q 0.36325,-0.3834 0.54488,-0.5549 0.18162,-0.1715 0.52469,-0.4339 0.35316,-0.2623 0.7265,-0.3632 0.37333,-0.111 0.8274,-0.111 0.65586,0 1.17046,0.2421 0.5146,0.2321 0.84758,0.5651 0.33298,0.333 0.56506,0.9586 0.23207,0.6256 0.34306,1.1301 0.12109,0.5045 0.18163,1.3621 0.0605,0.8577 0.0706,1.3925 0.0101,0.5247 0.0101,1.453 l 0,0.1715 q 0,0.8476 -0.0908,1.6346 -0.0807,0.7871 -0.3128,1.6044 -0.22198,0.8173 -0.57514,1.4126 -0.34307,0.5953 -0.9283,0.9788 -0.57515,0.3733 -1.32183,0.3733 z"
         style="font-style:normal;font-variant:normal;font-weight:normal;font-stretch:normal;font-size:20.66480446px;font-family:Oswald;-inkscape-font-specification:Oswald"
         id="path5116"
          />
      <path
         d="m 143.56388,1179.6493 0,-18.0817 4.00583,0 q 2.83535,0 3.99573,1.1604 1.17047,1.1603 1.17047,4.0058 l 0,7.1035 q 0,2.9766 -1.19065,4.3994 -1.18056,1.4126 -3.99574,1.4126 l -3.98564,0 z m 2.5831,-1.9373 1.42273,0 q 0.63568,0 1.08974,-0.111 0.45406,-0.1211 0.73659,-0.4238 0.28252,-0.3128 0.44397,-0.5852 0.16144,-0.2826 0.22198,-0.8678 0.0706,-0.5852 0.0807,-0.9586 0.0101,-0.3834 0.0101,-1.1805 0,-0.2624 0,-0.3936 l 0,-5.8119 q 0,-0.4945 -0.0101,-0.7871 0,-0.2926 -0.0303,-0.6861 -0.0202,-0.4036 -0.0706,-0.6357 -0.0505,-0.2321 -0.14126,-0.5146 -0.0908,-0.2926 -0.23208,-0.4541 -0.13117,-0.1614 -0.33297,-0.3329 -0.19172,-0.1817 -0.45406,-0.2624 -0.25226,-0.091 -0.59533,-0.1412 -0.34307,-0.061 -0.76686,-0.061 l -1.37227,0 0,14.2071 z"
         style="font-style:normal;font-variant:normal;font-weight:normal;font-stretch:normal;font-size:20.66480446px;font-family:Oswald;-inkscape-font-specification:Oswald"
         id="path5118"
          />
      <path
         d="m 158.5277,1179.8309 q -0.93839,0 -1.63461,-0.3229 -0.68614,-0.3229 -1.09984,-0.8375 -0.40361,-0.5247 -0.65587,-1.3319 -0.25225,-0.8173 -0.35315,-1.6245 -0.0908,-0.8173 -0.111,-1.897 -0.0303,-0.8475 0,-1.6951 0.0303,-1.009 0.13118,-1.786 0.11099,-0.787 0.37334,-1.5236 0.26234,-0.7366 0.67604,-1.2109 0.42379,-0.4742 1.09984,-0.7567 0.68613,-0.2926 1.59425,-0.2926 0.8274,0 1.453,0.222 0.63568,0.2118 1.04938,0.6558 0.42379,0.4339 0.69623,0.9687 0.28253,0.5348 0.42379,1.3016 0.14126,0.7568 0.19171,1.4934 0.0606,0.7366 0.0606,1.6951 l 0,0.3027 -5.16621,0 0,0.6458 q 0,0.1312 0,0.4137 -0.0202,0.3734 -0.0101,0.777 0.0202,0.3935 0.0404,0.7769 0.0202,0.3834 0.111,0.7366 0.0908,0.3431 0.22198,0.6054 0.13118,0.2624 0.36325,0.4137 0.24217,0.1514 0.56505,0.1514 0.40361,0 0.66596,-0.1514 0.26235,-0.1614 0.38343,-0.4742 0.13117,-0.3128 0.18162,-0.6256 0.0505,-0.3128 0.0605,-0.7871 l 0,-0.5448 2.56292,0 0,0.5146 q -0.0908,2.0685 -1.01911,3.1279 -0.9283,1.0595 -2.85554,1.0595 z m -1.27137,-7.9309 2.56292,0 0,-0.777 q -0.0101,-0.5146 -0.0605,-0.898 -0.0505,-0.3834 -0.18162,-0.7668 -0.12108,-0.3835 -0.38343,-0.5853 -0.26235,-0.2018 -0.64578,-0.2018 -0.39351,0 -0.66595,0.2119 -0.26235,0.2119 -0.39352,0.6155 -0.12108,0.3935 -0.17153,0.777 -0.0505,0.3834 -0.0606,0.9182 l 0,0.7063 z"
         style="font-style:normal;font-variant:normal;font-weight:normal;font-stretch:normal;font-size:20.66480446px;font-family:Oswald;-inkscape-font-specification:Oswald"
         id="path5120"
          />
      <path
         d="m 166.20637,1179.6493 -2.90599,-12.9155 2.4822,0 1.79606,9.6967 1.63462,-9.6967 2.4822,0 -2.88581,12.9155 -2.60328,0 z"
         style="font-style:normal;font-variant:normal;font-weight:normal;font-stretch:normal;font-size:20.66480446px;font-family:Oswald;-inkscape-font-specification:Oswald"
         id="path5122"
          />
      <path
         d="m 176.56906,1179.8309 q -0.9384,0 -1.63462,-0.3229 -0.68614,-0.3229 -1.09984,-0.8375 -0.40361,-0.5247 -0.65586,-1.3319 -0.25226,-0.8173 -0.35316,-1.6245 -0.0908,-0.8173 -0.111,-1.897 -0.0303,-0.8475 0,-1.6951 0.0303,-1.009 0.13118,-1.786 0.11099,-0.787 0.37334,-1.5236 0.26234,-0.7366 0.67604,-1.2109 0.42379,-0.4742 1.09984,-0.7567 0.68613,-0.2926 1.59426,-0.2926 0.8274,0 1.45299,0.222 0.63568,0.2118 1.04938,0.6558 0.42379,0.4339 0.69623,0.9687 0.28253,0.5348 0.42379,1.3016 0.14126,0.7568 0.19172,1.4934 0.0605,0.7366 0.0605,1.6951 l 0,0.3027 -5.1662,0 0,0.6458 q 0,0.1312 0,0.4137 -0.0202,0.3734 -0.0101,0.777 0.0202,0.3935 0.0404,0.7769 0.0202,0.3834 0.11099,0.7366 0.0908,0.3431 0.22198,0.6054 0.13118,0.2624 0.36325,0.4137 0.24217,0.1514 0.56506,0.1514 0.40361,0 0.66595,-0.1514 0.26235,-0.1614 0.38343,-0.4742 0.13117,-0.3128 0.18162,-0.6256 0.0505,-0.3128 0.0605,-0.7871 l 0,-0.5448 2.56292,0 0,0.5146 q -0.0908,2.0685 -1.01912,3.1279 -0.9283,1.0595 -2.85553,1.0595 z m -1.27137,-7.9309 2.56292,0 0,-0.777 q -0.0101,-0.5146 -0.0606,-0.898 -0.0505,-0.3834 -0.18162,-0.7668 -0.12108,-0.3835 -0.38343,-0.5853 -0.26235,-0.2018 -0.64577,-0.2018 -0.39352,0 -0.66596,0.2119 -0.26235,0.2119 -0.39352,0.6155 -0.12108,0.3935 -0.17153,0.777 -0.0504,0.3834 -0.0605,0.9182 l 0,0.7063 z"
         style="font-style:normal;font-variant:normal;font-weight:normal;font-stretch:normal;font-size:20.66480446px;font-family:Oswald;-inkscape-font-specification:Oswald"
         id="path5124"
          />
      <path
         d="m 182.33058,1179.6493 0,-18.0817 2.5831,0 0,18.0817 -2.5831,0 z"
         style="font-style:normal;font-variant:normal;font-weight:normal;font-stretch:normal;font-size:20.66480446px;font-family:Oswald;-inkscape-font-specification:Oswald"
         id="path5126"
          />
      <path
         d="m 193.81326,1178.6201 q -0.89803,1.2108 -2.97662,1.2108 -2.07859,0 -2.97662,-1.2108 -0.89803,-1.2108 -0.89803,-3.4912 l 0,-3.8747 q 0,-2.2804 0.89803,-3.4912 0.89803,-1.2108 2.97662,-1.2108 2.07859,0 2.97662,1.2108 0.89803,1.2108 0.89803,3.4912 l 0,3.8747 q 0,2.2804 -0.89803,3.4912 z m -3.46095,-0.9889 q 0.21189,0.081 0.48433,0.081 0.27244,0 0.47424,-0.081 0.2119,-0.081 0.34307,-0.1917 0.14126,-0.1211 0.23207,-0.343 0.0908,-0.2321 0.14127,-0.4036 0.0505,-0.1716 0.0706,-0.4945 0.0202,-0.3229 0.0202,-0.5045 0.0101,-0.1917 0.0101,-0.565 l 0,-3.8747 q 0,-0.3733 -0.0101,-0.5549 0,-0.1918 -0.0202,-0.5146 -0.0202,-0.3229 -0.0706,-0.4945 -0.0504,-0.1715 -0.14127,-0.3935 -0.0908,-0.2321 -0.23207,-0.3431 -0.13117,-0.121 -0.34307,-0.2018 -0.2018,-0.081 -0.47424,-0.081 -0.27244,0 -0.48433,0.081 -0.20181,0.081 -0.34307,0.2018 -0.13117,0.111 -0.22198,0.3431 -0.0908,0.222 -0.14127,0.3935 -0.0505,0.1716 -0.0706,0.4945 -0.0202,0.3228 -0.0303,0.5146 0,0.1816 0,0.5549 l 0,3.8747 q 0,0.3733 0,0.565 0.0101,0.1816 0.0303,0.5045 0.0202,0.3229 0.0706,0.4945 0.0504,0.1715 0.14127,0.4036 0.0908,0.2219 0.22198,0.343 0.14126,0.111 0.34307,0.1917 z"
         style="font-style:normal;font-variant:normal;font-weight:normal;font-stretch:normal;font-size:20.66480446px;font-family:Oswald;-inkscape-font-specification:Oswald"
         id="path5128"
          />
      <path
         d="m 201.37085,1177.712 q 0.4137,0 0.68614,-0.3027 0.28252,-0.3027 0.40361,-0.8577 0.13117,-0.5651 0.17153,-1.1099 0.0505,-0.555 0.0505,-1.2916 l -0.0202,-1.7052 q 0,-0.4541 -0.0101,-0.7265 0,-0.2826 -0.0303,-0.7366 -0.0303,-0.4642 -0.0908,-0.7568 -0.0504,-0.2926 -0.16144,-0.6458 -0.111,-0.3531 -0.27244,-0.5549 -0.15135,-0.2018 -0.40361,-0.3431 -0.24217,-0.1413 -0.55496,-0.1413 -0.15136,0 -0.29262,0.02 -0.13117,0.02 -0.28253,0.071 -0.14126,0.04 -0.24216,0.081 -0.0908,0.03 -0.24217,0.111 -0.15135,0.081 -0.22198,0.1211 -0.0605,0.03 -0.22199,0.1311 -0.16144,0.1009 -0.2018,0.1211 l 0,7.9915 q 0.88794,0.5247 1.93732,0.5247 z m -4.52042,5.8119 0,-16.7901 2.5831,0 0,1.2915 q 0.31279,-0.3329 0.43388,-0.454 0.12108,-0.1211 0.4137,-0.3734 0.3027,-0.2522 0.5146,-0.3531 0.22198,-0.1009 0.55496,-0.1917 0.34307,-0.1009 0.70632,-0.1009 0.65586,0 1.17047,0.2421 0.5146,0.2321 0.84758,0.5651 0.33297,0.333 0.56505,0.9586 0.23207,0.6155 0.34307,1.12 0.12108,0.5045 0.18162,1.3622 0.0605,0.8576 0.0706,1.3924 0.0101,0.5247 0.0101,1.453 l 0,0.1917 q 0,0.8476 -0.0908,1.6346 -0.0807,0.7871 -0.3128,1.6044 -0.22198,0.8072 -0.57514,1.4025 -0.34307,0.5953 -0.9283,0.9788 -0.57515,0.3733 -1.32182,0.3733 -1.31173,0 -2.5831,-1.342 l 0,5.035 -2.5831,0 z"
         style="font-style:normal;font-variant:normal;font-weight:normal;font-stretch:normal;font-size:20.66480446px;font-family:Oswald;-inkscape-font-specification:Oswald"
         id="path5130"
          />
      <path
         d="m 211.0373,1179.8309 q -0.93839,0 -1.63462,-0.3229 -0.68613,-0.3229 -1.09983,-0.8375 -0.40361,-0.5247 -0.65587,-1.3319 -0.25225,-0.8173 -0.35316,-1.6245 -0.0908,-0.8173 -0.11099,-1.897 -0.0303,-0.8475 0,-1.6951 0.0303,-1.009 0.13117,-1.786 0.111,-0.787 0.37334,-1.5236 0.26235,-0.7366 0.67605,-1.2109 0.42379,-0.4742 1.09983,-0.7567 0.68614,-0.2926 1.59426,-0.2926 0.8274,0 1.453,0.222 0.63568,0.2118 1.04938,0.6558 0.42379,0.4339 0.69623,0.9687 0.28252,0.5348 0.42379,1.3016 0.14126,0.7568 0.19171,1.4934 0.0605,0.7366 0.0605,1.6951 l 0,0.3027 -5.1662,0 0,0.6458 q 0,0.1312 0,0.4137 -0.0202,0.3734 -0.0101,0.777 0.0202,0.3935 0.0404,0.7769 0.0202,0.3834 0.111,0.7366 0.0908,0.3431 0.22198,0.6054 0.13117,0.2624 0.36325,0.4137 0.24216,0.1514 0.56505,0.1514 0.40361,0 0.66596,-0.1514 0.26234,-0.1614 0.38343,-0.4742 0.13117,-0.3128 0.18162,-0.6256 0.0505,-0.3128 0.0605,-0.7871 l 0,-0.5448 2.56292,0 0,0.5146 q -0.0908,2.0685 -1.01911,3.1279 -0.9283,1.0595 -2.85554,1.0595 z m -1.27137,-7.9309 2.56292,0 0,-0.777 q -0.0101,-0.5146 -0.0605,-0.898 -0.0505,-0.3834 -0.18162,-0.7668 -0.12109,-0.3835 -0.38343,-0.5853 -0.26235,-0.2018 -0.64578,-0.2018 -0.39352,0 -0.66595,0.2119 -0.26235,0.2119 -0.39352,0.6155 -0.12109,0.3935 -0.17154,0.777 -0.0505,0.3834 -0.0605,0.9182 l 0,0.7063 z"
         style="font-style:normal;font-variant:normal;font-weight:normal;font-stretch:normal;font-size:20.66480446px;font-family:Oswald;-inkscape-font-specification:Oswald"
         id="path5132"
          />
      <path
         d="m 216.78873,1179.6493 0,-12.9155 2.58311,0 0,1.7254 q 0.39351,-0.7668 1.14019,-1.3319 0.75677,-0.5751 1.67498,-0.5751 0.0303,0 0.4137,0.04 l 0,2.8556 q -0.71641,-0.2826 -1.43281,-0.2826 -0.80722,0 -1.30164,0.4844 -0.49442,0.4843 -0.49442,1.2814 l 0,8.718 -2.58311,0 z"
         style="font-style:normal;font-variant:normal;font-weight:normal;font-stretch:normal;font-size:20.66480446px;font-family:Oswald;-inkscape-font-specification:Oswald"
         id="path5134"
          />
    </g>
  </g>
	</symbol>
	<symbol id="custom-octocat" viewBox="0 0 18 18">
		<title>Custom Octocat</title>
		<ellipse
			style="opacity:1;fill:#ffffff;fill-opacity:1;stroke:#999999;stroke-width:0.2;stroke-miterlimit:4;stroke-dasharray:none;stroke-opacity:1"
			cx="9.1910334" cy="9.1171217"
			rx="9.091033"
			ry="9.0171213" 
		/>
		<path style="clip-rule:evenodd;fill:#181616;fill-rule:evenodd"
			d="m 9.2588295,1.1118363 c -4.418,0 -8,3.5820001 -8,8.0000001 0,3.5349996 2.292,6.5329996 5.471,7.5909996 0.4,0.072 0.546,-0.174 0.546,-0.387 0,-0.189 -0.007,-0.693 -0.011,-1.359 -2.226,0.482 -2.695,-1.072 -2.695,-1.072 -0.364,-0.926 -0.888,-1.172 -0.888,-1.172 -0.727,-0.496 0.055,-0.486 0.055,-0.486 0.803,0.057 1.226,0.824 1.226,0.824 0.713,1.223 1.873,0.871 2.328,0.666 0.073,-0.518 0.279,-0.869 0.508,-1.07 -1.776,-0.201 -3.644,-0.889 -3.644,-3.9539996 0,-0.873 0.312,-1.587 0.824,-2.146 -0.083,-0.203 -0.358,-1.016 0.077,-2.117 0,0 0.672,-0.215 2.2,0.82 0.639,-0.178 1.323,-0.266 2.003,-0.269 0.68,0.003 1.3639995,0.091 2.0029995,0.269 1.527,-1.035 2.198,-0.82 2.198,-0.82 0.437,1.101 0.162,1.915 0.08,2.117 0.512,0.559 0.821,1.273 0.821,2.146 0,3.0729996 -1.87,3.7499996 -3.652,3.9479996 0.287,0.246 0.543,0.734 0.543,1.482 0,1.068 -0.01,1.932 -0.01,2.193 0,0.215 0.144,0.463 0.55,0.385 3.177,-1.06 5.467,-4.056 5.467,-7.5889996 0,-4.418 -3.582,-8.0000001 -7.9999995,-8.0000001 z"
		/>
	</symbol>
</svg>
