<svg xmlns="http://www.w3.org/2000/svg">
	<symbol id="clock" viewBox="0 0 16 16">
		<title>Clock</title>
		<path d="M7.5,2C4.462,2,2,4.462,2,7.5C2,10.537,4.462,13,7.5,13c3.037,0,5.5-2.463,5.5-5.5C13,4.462,10.537,2,7.5,2z M7.5,12
		C5.015,12,3,9.985,3,7.5S5.015,3,7.5,3C9.984,3,12,5.015,12,7.5S9.984,12,7.5,12z M8,4H7v3.707l2.621,2.621l0.707-0.707L8,7.293V4z
		"/>
	</symbol>
	<symbol id="fork" viewBox="0 0 16 16">
		<title>Fork</title>
		<path d="M14,11.277V10c0-1.657-1.344-3-3-3H9V4.723C9.596,4.376,10,3.738,10,3c0-1.104-0.896-2-2-2
	S6,1.896,6,3c0,0.738,0.405,1.376,1,1.723V7H5c-1.657,0-3,1.343-3,3v1.277C1.405,11.624,1,12.262,1,13c0,1.104,0.896,2,2,2
	s2-0.896,2-2c0-0.738-0.405-1.376-1-1.723V10c0-0.553,0.448-1,1-1h2v2.277C6.405,11.624,6,12.262,6,13c0,1.104,0.896,2,2,2
	s2-0.896,2-2c0-0.738-0.404-1.376-1-1.723V9h2c0.553,0,1,0.447,1,1v1.277c-0.596,0.347-1,0.984-1,1.723c0,1.104,0.896,2,2,2
	s2-0.896,2-2C15,12.262,14.596,11.624,14,11.277z M8,2c0.552,0,1,0.448,1,1S8.552,4,8,4S7,3.552,7,3S7.448,2,8,2z M3,14
	c-0.552,0-1-0.447-1-1s0.448-1,1-1s1,0.447,1,1S3.552,14,3,14z M8,14c-0.552,0-1-0.447-1-1s0.448-1,1-1s1,0.447,1,1S8.552,14,8,14z
	 M13,14c-0.553,0-1-0.447-1-1s0.447-1,1-1s1,0.447,1,1S13.553,14,13,14z"/>
	</symbol>
	<symbol id="star" viewBox="0 0 16 16">
		<title>Star</title>
		<polygon points="15,6 9.646,6 8,1 6.354,6 1,6 5.338,9.031 3.674,14 8,10.918 12.326,14 10.663,9.031 "/>
	</symbol>
	<symbol id="eye" viewBox="0 0 16 16">
		<title>Eye</title>
		<path d="M12.042,4.042C11.015,2.993,9.584,2.34,8,2.34c-1.585,0-3.016,0.653-4.043,1.703L0,8h0l3.957,3.956
		C4.984,13.007,6.416,13.659,8,13.659c1.583,0,3.015-0.652,4.042-1.701L16,8L12.042,4.042z M10.972,10.908
		c-0.79,0.807-1.846,1.251-2.971,1.251c-1.126,0-2.182-0.444-2.983-1.264L2.122,8l2.907-2.907C5.819,4.285,6.874,3.84,8,3.84
		c1.125,0,2.18,0.444,2.981,1.262L13.879,8L10.972,10.908z M11,8 M5,8c0,1.656,1.344,3,3,3s3-1.344,3-3c0-1.657-1.344-3-3-3
		S5,6.343,5,8 M6,7c0-0.552,0.447-1,1-1c0.552,0,1,0.448,1,1S7.552,8,7,8C6.447,8,6,7.552,6,7z"/>
	</symbol>
</svg>
